<svg width="49" height="49" viewBox="0 0 49 49" fill="none" xmlns="http://www.w3.org/2000/svg">
<g clip-path="url(#clip0)">
<path d="M44.4062 24.5H4.59375C3.37541 24.5 2.20697 24.984 1.34548 25.8455C0.483983 26.707 0 27.8754 0 29.0938C0 30.3121 0.483983 31.4805 1.34548 32.342C2.20697 33.2035 3.37541 33.6875 4.59375 33.6875H44.4062C45.6246 33.6875 46.793 33.2035 47.6545 32.342C48.516 31.4805 49 30.3121 49 29.0938C49 27.8754 48.516 26.707 47.6545 25.8455C46.793 24.984 45.6246 24.5 44.4062 24.5ZM45.9375 36.75H3.0625C2.65639 36.75 2.26691 36.9113 1.97974 37.1985C1.69258 37.4857 1.53125 37.8751 1.53125 38.2812V39.8125C1.53125 41.437 2.17656 42.9949 3.32522 44.1435C4.47388 45.2922 6.0318 45.9375 7.65625 45.9375H41.3438C42.9682 45.9375 44.5261 45.2922 45.6748 44.1435C46.8234 42.9949 47.4688 41.437 47.4688 39.8125V38.2812C47.4688 37.8751 47.3074 37.4857 47.0203 37.1985C46.7331 36.9113 46.3436 36.75 45.9375 36.75ZM5.61203 21.4375H43.388C46.6964 21.4375 48.6153 17.2361 46.7204 14.1755C42.875 7.9625 34.4101 3.07207 24.5 3.0625C14.5909 3.07207 6.125 7.9625 2.27965 14.1746C0.382812 17.2352 2.30357 21.4375 5.61203 21.4375ZM36.75 10.7188C37.0529 10.7188 37.3489 10.8086 37.6007 10.9768C37.8525 11.1451 38.0488 11.3842 38.1647 11.664C38.2806 11.9438 38.3109 12.2517 38.2518 12.5487C38.1927 12.8458 38.0469 13.1186 37.8328 13.3328C37.6186 13.5469 37.3458 13.6927 37.0487 13.7518C36.7517 13.8109 36.4438 13.7806 36.164 13.6647C35.8842 13.5488 35.6451 13.3525 35.4768 13.1007C35.3086 12.8489 35.2188 12.5529 35.2188 12.25C35.2188 11.8439 35.3801 11.4544 35.6672 11.1672C35.9544 10.8801 36.3439 10.7188 36.75 10.7188ZM24.5 7.65625C24.8029 7.65625 25.0989 7.74606 25.3507 7.91431C25.6025 8.08257 25.7988 8.32172 25.9147 8.60152C26.0306 8.88132 26.0609 9.1892 26.0018 9.48623C25.9427 9.78327 25.7969 10.0561 25.5828 10.2703C25.3686 10.4844 25.0958 10.6302 24.7987 10.6893C24.5017 10.7484 24.1938 10.7181 23.914 10.6022C23.6342 10.4863 23.3951 10.29 23.2268 10.0382C23.0586 9.7864 22.9688 9.49035 22.9688 9.1875C22.9688 8.78139 23.1301 8.39191 23.4172 8.10474C23.7044 7.81758 24.0939 7.65625 24.5 7.65625ZM12.25 10.7188C12.5529 10.7188 12.8489 10.8086 13.1007 10.9768C13.3525 11.1451 13.5488 11.3842 13.6647 11.664C13.7806 11.9438 13.8109 12.2517 13.7518 12.5487C13.6927 12.8458 13.5469 13.1186 13.3328 13.3328C13.1186 13.5469 12.8458 13.6927 12.5487 13.7518C12.2517 13.8109 11.9438 13.7806 11.664 13.6647C11.3842 13.5488 11.1451 13.3525 10.9768 13.1007C10.8086 12.8489 10.7188 12.5529 10.7188 12.25C10.7188 11.8439 10.8801 11.4544 11.1672 11.1672C11.4544 10.8801 11.8439 10.7188 12.25 10.7188Z" fill="black"/>
</g>
<defs>
<clipPath id="clip0">
<rect width="49" height="49" fill="white"/>
</clipPath>
</defs>
</svg>
