<svg width="1920" height="127" viewBox="0 0 1920 127" fill="none" xmlns="http://www.w3.org/2000/svg">
<rect x="507.032" y="63.4194" width="44.4194" height="44.4194" fill="#9A1C1C"/>
<rect x="551.452" y="19" width="44.4194" height="44.4194" fill="#9A1C1C"/>
<rect x="595.871" y="63.4194" width="44.4194" height="44.4194" fill="#9A1C1C"/>
<rect x="640.291" y="19" width="44.4194" height="44.4194" fill="#9A1C1C"/>
<rect x="684.709" y="63.4194" width="44.4194" height="44.4194" fill="#9A1C1C"/>
<rect x="729.129" y="19" width="44.4194" height="44.4194" fill="#9A1C1C"/>
<rect x="773.548" y="63.4194" width="44.4194" height="44.4194" fill="#9A1C1C"/>
<rect x="817.968" y="19" width="44.4194" height="44.4194" fill="#9A1C1C"/>
<rect x="862.387" y="63.4194" width="44.4194" height="44.4194" fill="#9A1C1C"/>
<rect x="906.807" y="19" width="44.4194" height="44.4194" fill="#9A1C1C"/>
<rect x="951.226" y="63.4194" width="44.4194" height="44.4194" fill="#9A1C1C"/>
<rect x="995.646" y="19" width="44.4194" height="44.4194" fill="#9A1C1C"/>
<rect x="1040.06" y="63.4194" width="44.4194" height="44.4194" fill="#9A1C1C"/>
<rect x="1084.48" y="19" width="44.4194" height="44.4194" fill="#9A1C1C"/>
<rect x="1128.9" y="63.4194" width="44.4194" height="44.4194" fill="#9A1C1C"/>
<rect x="1217.74" y="63.4194" width="44.4194" height="44.4194" fill="#9A1C1C"/>
<rect x="1262.16" y="19" width="44.4194" height="44.4194" fill="#9A1C1C"/>
<rect x="1306.58" y="63.4194" width="44.4194" height="44.4194" fill="#9A1C1C"/>
<rect x="1351" y="19" width="44.4194" height="44.4194" fill="#9A1C1C"/>
<rect x="1173.32" y="19" width="44.4194" height="44.4194" fill="#9A1C1C"/>
<rect x="1395" y="63.4194" width="44.4194" height="44.4194" fill="#9A1C1C"/>
<rect x="1439.42" y="19" width="44.4194" height="44.4194" fill="#9A1C1C"/>
<rect x="1483.84" y="63.4194" width="44.4194" height="44.4194" fill="#9A1C1C"/>
<rect x="1572.68" y="63.4194" width="44.4194" height="44.4194" fill="#9A1C1C"/>
<rect x="1617.1" y="19" width="44.4194" height="44.4194" fill="#9A1C1C"/>
<rect x="1661.52" y="63.4194" width="44.4194" height="44.4194" fill="#9A1C1C"/>
<rect x="1705.94" y="19" width="44.4194" height="44.4194" fill="#9A1C1C"/>
<rect x="1750" y="63.4194" width="44.4194" height="44.4194" fill="#9A1C1C"/>
<rect x="1794.42" y="19" width="44.4194" height="44.4194" fill="#9A1C1C"/>
<rect x="1838.84" y="63.4194" width="44.4194" height="44.4194" fill="#9A1C1C"/>
<rect x="1883.26" y="19" width="44.4194" height="44.4194" fill="#9A1C1C"/>
<rect x="1528.26" y="19" width="44.4194" height="44.4194" fill="#9A1C1C"/>
<rect x="-26" y="63.4194" width="44.4194" height="44.4194" fill="#9A1C1C"/>
<rect x="18.4194" y="19" width="44.4194" height="44.4194" fill="#9A1C1C"/>
<rect x="62.8389" y="63.4194" width="44.4194" height="44.4194" fill="#9A1C1C"/>
<rect x="107.258" y="19" width="44.4194" height="44.4194" fill="#9A1C1C"/>
<rect x="151.677" y="63.4194" width="44.4194" height="44.4194" fill="#9A1C1C"/>
<rect x="196.097" y="19" width="44.4194" height="44.4194" fill="#9A1C1C"/>
<rect x="240.516" y="63.4194" width="44.4194" height="44.4194" fill="#9A1C1C"/>
<rect x="284.936" y="19" width="44.4194" height="44.4194" fill="#9A1C1C"/>
<rect x="329.355" y="63.4194" width="44.4194" height="44.4194" fill="#9A1C1C"/>
<rect x="373.774" y="19" width="44.4194" height="44.4194" fill="#9A1C1C"/>
<rect x="418.193" y="63.4194" width="44.4194" height="44.4194" fill="#9A1C1C"/>
<rect x="462.613" y="19" width="44.4194" height="44.4194" fill="#9A1C1C"/>
<rect width="1920" height="6" fill="#9A1C1C"/>
<rect y="13" width="1920" height="6" fill="#9A1C1C"/>
<rect y="107" width="1920" height="6" fill="#9A1C1C"/>
<rect y="121" width="1920" height="6" fill="#9A1C1C"/>
</svg>
