<svg width="52" height="52" viewBox="0 0 52 52" fill="none" xmlns="http://www.w3.org/2000/svg">
<path d="M39.3559 6.5C37.349 6.5 36.1628 7.306 35.2934 8.63363C34.4988 8.51988 33.7383 8.4305 33.1094 8.4305C31.0781 8.4305 29.3459 9.451 28.132 10.7656C26.9587 12.0347 26.1982 13.5834 25.5434 15.1336C25.5369 15.1385 25.4979 15.1271 25.493 15.1336C23.803 18.3072 22.0074 22.477 15.8941 25.3386C11.3441 27.4853 9.13413 30.6199 8.58163 33.7188C7.293 34.5247 6.5 35.7175 6.5 37.8836C6.5 41.2604 8.9375 43.2136 11.9844 44.0781C13.7118 45.9306 16.0209 47.125 18.8906 47.125C23.8794 47.125 29.7391 43.8425 36.7656 36.5625H36.816C44.5802 28.7934 47.125 22.3503 47.125 17.7726C47.125 14.7956 46.2995 12.6766 44.7379 11.6301C45.1912 7.92675 41.7804 6.5 39.3575 6.5H39.3559ZM33.1094 11.6805C33.319 11.6805 33.5969 11.7114 33.8715 11.7292C32.5569 15.431 31.2227 20.579 26.2031 25.5938C21.398 30.5061 16.25 31.4015 12.3906 32.3472C13.1332 30.9335 14.5616 29.5604 17.2656 28.2847C24.2921 24.9909 26.7426 19.6901 28.3368 16.7066C28.3741 16.6562 28.405 16.6059 28.4375 16.5539C29.0225 15.1401 29.7261 13.8076 30.5191 12.9496C31.3137 12.0916 32.0872 11.6789 33.1094 11.6789V11.6805ZM40.5746 14.625C41.3936 14.5876 42.3199 14.7322 43.4184 15.1336C43.6459 15.6861 43.875 16.5165 43.875 17.7726C43.875 21.1364 41.925 26.8824 34.5312 34.2778L34.4809 34.3281C29.6693 39.3169 25.5759 42.0095 22.3438 43.1649C18.5542 42.9227 14.352 40.0026 29.0469 29.25C34.9944 24.9015 34.8237 14.911 40.5746 14.625Z" fill="black"/>
</svg>
