<svg width="36" height="58" viewBox="0 0 36 58" fill="none" xmlns="http://www.w3.org/2000/svg">
<g clip-path="url(#clip0)">
<path d="M32.4 21.75L28.8 54.375C28.6125 55.2812 28.2375 56.112 27.675 56.8672C27.1125 57.6224 26.4375 58 25.65 58H10.35C9.5625 58 8.87813 57.6224 8.29688 56.8672C7.71562 56.112 7.35 55.2812 7.2 54.375L3.6 21.75C2.625 21.75 1.78125 21.4007 1.06875 20.7021C0.35625 20.0036 0 19.154 0 18.1533C0 17.1527 0.35625 16.2936 1.06875 15.5762C1.78125 14.8587 2.625 14.5 3.6 14.5H21.3188L24.4688 1.8125C24.6187 1.17057 24.9562 0.679688 25.4812 0.339844C26.0062 0 26.5687 -0.0849609 27.1687 0.0849609C27.7687 0.254883 28.2188 0.632487 28.5187 1.21777C28.8187 1.80306 28.8937 2.41667 28.7437 3.05859L25.9312 14.5H32.4C33.375 14.5 34.2188 14.8587 34.9312 15.5762C35.6437 16.2936 36 17.1527 36 18.1533C36 19.154 35.6437 20.0036 34.9312 20.7021C34.2188 21.4007 33.375 21.75 32.4 21.75Z" fill="black"/>
</g>
<defs>
<clipPath id="clip0">
<rect width="36" height="58" fill="white"/>
</clipPath>
</defs>
</svg>
