<svg width="269" height="206" viewBox="0 0 269 206" fill="none" xmlns="http://www.w3.org/2000/svg">
<path d="M134.598 146.754C164.596 146.754 188.967 123.746 190.004 95C188.967 66.2545 164.596 43.2463 134.598 43.2463C104.604 43.2463 80.2254 66.2545 79.2021 95C80.222 123.746 104.6 146.754 134.598 146.754Z" fill="#ECE2D0"/>
<path d="M134.602 18.6875C92.4568 18.6875 58.2861 52.8547 58.2861 95C58.2861 137.142 92.4603 171.312 134.602 171.312C176.744 171.312 210.915 137.142 210.915 95C210.915 52.8547 176.744 18.6875 134.602 18.6875ZM134.599 150.5C103.945 150.5 79.0952 126.493 79.0952 96.8697C79.0952 96.2383 79.1819 95.6244 79.2027 95C79.1819 94.3756 79.0952 93.7582 79.0952 93.1303C79.0952 63.5072 103.949 39.5 134.599 39.5C165.252 39.5 190.099 63.5072 190.099 93.1303C190.099 93.7582 190.026 94.3756 190.008 95C190.029 95.6244 190.099 96.2383 190.099 96.8697C190.095 126.493 165.252 150.5 134.599 150.5Z" fill="white"/>
<path d="M33.0742 9.74161C33.9067 6.47752 35.5544 9.70346 35.5544 9.70346C35.5544 9.70346 36.1302 43.4891 39.8765 43.8568C43.6227 44.2245 40.7367 9.09296 45.1698 8.42002C49.2907 7.76442 46.9388 44.4152 50.692 44.0441C54.4313 43.6486 55.0627 9.87689 55.0627 9.87689C55.0627 9.87689 56.7277 6.65443 57.5497 9.89424C67.7062 49.8195 59.4888 66.14 59.4888 66.14C59.4888 66.14 58.1013 69.5706 54.806 69.588C54.4972 69.5706 54.7297 164.41 54.7088 177.161C54.7158 183.359 35.6307 183.169 35.6411 176.998C35.655 164.247 36.0262 69.418 35.7278 69.4249C32.4221 69.4249 31.0381 65.9978 31.0381 65.9978C31.0381 65.9978 22.8518 49.6877 33.0742 9.74161Z" fill="white"/>
<path d="M213.932 8.28126C218.226 8.27085 236.042 21.1156 236.063 68.8526C236.083 84.1185 227.755 84.1151 227.769 93.6645C227.783 103.197 227.835 179.017 227.835 179.017C227.835 179.017 218.698 185.285 211.906 178.725L211.781 9.63754C211.788 9.64101 211.764 8.27779 213.932 8.28126Z" fill="white"/>
<path d="M15.6592 64.4893C16.0934 64.4893 16.4079 64.6689 16.6025 65.0283C16.8122 65.3727 16.917 65.7695 16.917 66.2188C16.917 66.4434 16.8945 66.638 16.8496 66.8027C16.8047 66.9674 16.7148 67.1247 16.5801 67.2744C16.4453 67.4092 16.2656 67.5439 16.041 67.6787C15.8164 67.7985 15.5244 67.9333 15.165 68.083C14.3265 68.4424 13.6676 68.8766 13.1885 69.3857C12.7093 69.8799 12.4697 70.374 12.4697 70.8682C12.4697 71.1826 12.5745 71.4821 12.7842 71.7666C12.9938 72.0511 13.3232 72.3057 13.7725 72.5303C14.2217 72.7399 14.7982 72.9121 15.502 73.0469C16.2207 73.1667 17.0817 73.2266 18.085 73.2266C19.1182 73.2266 20.099 73.1068 21.0273 72.8672C21.9557 72.6126 22.7643 72.2607 23.4531 71.8115C24.1569 71.3623 24.7109 70.8307 25.1152 70.2168C25.5345 69.6029 25.7441 68.9365 25.7441 68.2178C25.7441 67.6787 25.5195 67.1172 25.0703 66.5332C24.6211 65.9492 23.9098 65.3428 22.9365 64.7139C21.2145 63.5908 19.9043 62.6849 19.0059 61.9961C18.1224 61.3073 17.5758 60.873 17.3662 60.6934C16.2432 59.7051 15.4046 58.7542 14.8506 57.8408C14.2965 56.9274 14.0195 55.9766 14.0195 54.9883C14.0195 54.0749 14.2367 53.1839 14.6709 52.3154C15.1201 51.4469 15.7191 50.6309 16.4678 49.8672C17.2165 49.1035 18.0775 48.3997 19.0508 47.7559C20.0391 47.097 21.0648 46.5355 22.1279 46.0713C23.2061 45.6071 24.2842 45.2477 25.3623 44.9932C26.4554 44.7236 27.4886 44.5889 28.4619 44.5889C29.1956 44.5889 29.8695 44.6712 30.4834 44.8359C31.1123 45.0007 31.6589 45.2627 32.123 45.6221C32.5872 45.9665 32.9466 46.4157 33.2012 46.9697C33.4707 47.5238 33.6055 48.1901 33.6055 48.9688C33.6055 50.0918 33.2835 51.1624 32.6396 52.1807C31.9958 53.1989 31.015 54.1497 29.6973 55.0332C29.1133 55.4375 28.5742 55.6396 28.0801 55.6396C27.571 55.6396 27.1667 55.46 26.8672 55.1006C26.5677 54.7262 26.418 54.292 26.418 53.7979C26.418 53.3786 26.5378 52.9593 26.7773 52.54C27.0319 52.1208 27.4362 51.7614 27.9902 51.4619C28.4245 51.2373 28.8063 50.9378 29.1357 50.5635C29.4801 50.1742 29.6523 49.7998 29.6523 49.4404C29.6523 49.096 29.5326 48.8714 29.293 48.7666C29.0684 48.6618 28.7913 48.6094 28.4619 48.6094C27.833 48.6094 27.1442 48.6917 26.3955 48.8564C25.6618 49.0062 24.9206 49.2158 24.1719 49.4854C23.4382 49.7549 22.7194 50.0768 22.0156 50.4512C21.3268 50.8255 20.7129 51.2298 20.1738 51.6641C19.6497 52.0983 19.223 52.5625 18.8936 53.0566C18.5791 53.5358 18.4219 54.015 18.4219 54.4941C18.4219 54.8236 18.4893 55.1305 18.624 55.415C18.7588 55.6995 18.9535 55.984 19.208 56.2686C19.4775 56.5531 19.7995 56.8525 20.1738 57.167C20.5482 57.4665 20.9824 57.7959 21.4766 58.1553L26.7324 62.041C27.4062 62.5352 28.0052 63.0218 28.5293 63.501C29.0684 63.9652 29.5176 64.4368 29.877 64.916C30.2363 65.3802 30.5133 65.8519 30.708 66.3311C30.9027 66.8102 31 67.3193 31 67.8584C31 69.0563 30.6855 70.2318 30.0566 71.3848C29.4427 72.5228 28.5592 73.541 27.4062 74.4395C26.2682 75.3379 24.8906 76.0641 23.2734 76.6182C21.6712 77.1722 19.8893 77.4492 17.9277 77.4492C16.1009 77.4492 14.5436 77.2995 13.2559 77C11.9831 76.7155 10.9349 76.3262 10.1113 75.832C9.28776 75.3229 8.6888 74.7464 8.31445 74.1025C7.9401 73.4437 7.75293 72.7549 7.75293 72.0361C7.75293 71.2874 7.9401 70.5312 8.31445 69.7676C8.70378 68.9889 9.24284 68.2552 9.93164 67.5664C10.6354 66.8776 11.474 66.2637 12.4473 65.7246C13.4206 65.1855 14.4912 64.7738 15.6592 64.4893ZM39.9844 76.2363C39.9844 75.5176 40.1416 74.7839 40.4561 74.0352C40.7855 73.2865 41.1973 72.5153 41.6914 71.7217C42.1855 70.9281 42.7246 70.127 43.3086 69.3184C43.8926 68.4948 44.4466 67.6562 44.9707 66.8027C45.1204 66.5632 45.2402 66.3385 45.3301 66.1289C45.4199 65.9043 45.4648 65.6797 45.4648 65.4551C45.4648 65.2155 45.3975 65.0208 45.2627 64.8711C45.1279 64.7064 44.9333 64.624 44.6787 64.624C44.0648 64.624 43.4733 64.7588 42.9043 65.0283C42.3353 65.2829 41.7887 65.6273 41.2646 66.0615C40.7406 66.4808 40.2389 66.9674 39.7598 67.5215C39.2956 68.0755 38.8538 68.652 38.4346 69.251C38.0303 69.835 37.6484 70.4189 37.2891 71.0029C36.9297 71.5869 36.6003 72.1185 36.3008 72.5977C36.0312 73.0918 35.7842 73.6309 35.5596 74.2148C35.335 74.7988 35.0879 75.3379 34.8184 75.832C34.5638 76.3262 34.2718 76.738 33.9424 77.0674C33.613 77.4118 33.2012 77.584 32.707 77.584C32.168 77.584 31.7412 77.4118 31.4268 77.0674C31.1123 76.723 30.9551 76.3112 30.9551 75.832C30.9551 75.5625 31.0524 75.1432 31.2471 74.5742C31.4417 74.0052 31.6888 73.3464 31.9883 72.5977C32.3027 71.834 32.6546 71.0254 33.0439 70.1719C33.4333 69.3184 33.8151 68.4723 34.1895 67.6338C34.5788 66.7952 34.9382 66.0091 35.2676 65.2754C35.612 64.5267 35.8965 63.8903 36.1211 63.3662C36.3906 62.7223 36.7425 62.2432 37.1768 61.9287C37.626 61.6143 38.0677 61.457 38.502 61.457C38.8763 61.457 39.2057 61.5993 39.4902 61.8838C39.7897 62.1533 39.9395 62.5501 39.9395 63.0742C39.9395 63.4635 39.8496 63.8903 39.6699 64.3545C40.0742 63.9801 40.5085 63.5758 40.9727 63.1416C41.4368 62.7074 41.9385 62.3105 42.4775 61.9512C43.0316 61.5768 43.6455 61.2699 44.3193 61.0303C44.9932 60.7907 45.7493 60.6709 46.5879 60.6709C47.0072 60.6709 47.404 60.7233 47.7783 60.8281C48.1527 60.9329 48.4821 61.0977 48.7666 61.3223C49.0661 61.5469 49.3057 61.8389 49.4854 62.1982C49.68 62.5576 49.7923 62.9919 49.8223 63.501C50.1667 63.1566 50.541 62.8197 50.9453 62.4902C51.3496 62.1458 51.7839 61.8389 52.248 61.5693C52.7272 61.2998 53.2438 61.0827 53.7979 60.918C54.3519 60.7533 54.9658 60.6709 55.6396 60.6709C56.1338 60.6709 56.6055 60.7233 57.0547 60.8281C57.5039 60.9329 57.9007 61.1126 58.2451 61.3672C58.6045 61.6068 58.8815 61.9212 59.0762 62.3105C59.2858 62.6999 59.3906 63.179 59.3906 63.748C59.3906 64.6465 59.181 65.5 58.7617 66.3086C58.3574 67.1172 57.8783 67.8584 57.3242 68.5322C57.1445 68.7568 56.9049 69.0413 56.6055 69.3857C56.306 69.7301 56.014 70.097 55.7295 70.4863C55.445 70.8757 55.1979 71.2799 54.9883 71.6992C54.7786 72.1035 54.6738 72.4854 54.6738 72.8447C54.6738 73.1742 54.7712 73.3838 54.9658 73.4736C55.1755 73.5635 55.445 73.6084 55.7744 73.6084C56.4033 73.6084 57.0846 73.4212 57.8184 73.0469C58.5521 72.6725 59.2633 72.2233 59.9521 71.6992C60.6559 71.1602 61.3073 70.6061 61.9062 70.0371C62.5202 69.4531 63.0068 68.9665 63.3662 68.5771C63.4561 68.4723 63.5609 68.3975 63.6807 68.3525C63.8005 68.3076 63.9202 68.2852 64.04 68.2852C64.3096 68.2852 64.5492 68.4049 64.7588 68.6445C64.9834 68.8841 65.0957 69.1986 65.0957 69.5879C65.0957 69.8874 65.0059 70.2168 64.8262 70.5762C64.6465 70.9355 64.3395 71.2874 63.9053 71.6318C63.0967 72.4105 62.2656 73.1592 61.4121 73.8779C60.5736 74.5817 59.7201 75.2106 58.8516 75.7646C57.998 76.3037 57.137 76.738 56.2686 77.0674C55.415 77.3968 54.5615 77.5615 53.708 77.5615C52.5999 77.5615 51.7015 77.2995 51.0127 76.7754C50.3389 76.2513 50.002 75.4202 50.002 74.2822C50.002 73.5335 50.1442 72.8298 50.4287 72.1709C50.7132 71.512 51.0651 70.8831 51.4844 70.2842C51.9036 69.6702 52.3454 69.0788 52.8096 68.5098C53.2738 67.9408 53.6781 67.3717 54.0225 66.8027C54.1722 66.5632 54.292 66.3385 54.3818 66.1289C54.4717 65.9043 54.5166 65.6797 54.5166 65.4551C54.5166 65.2155 54.4492 65.0208 54.3145 64.8711C54.1797 64.7064 53.985 64.624 53.7305 64.624C53.1165 64.624 52.5251 64.7588 51.9561 65.0283C51.387 65.2829 50.8405 65.6273 50.3164 66.0615C49.7923 66.4808 49.2907 66.9674 48.8115 67.5215C48.3473 68.0755 47.9056 68.652 47.4863 69.251C47.082 69.835 46.7002 70.4189 46.3408 71.0029C45.9814 71.5869 45.652 72.1185 45.3525 72.5977C45.083 73.0918 44.8359 73.6309 44.6113 74.2148C44.3867 74.7988 44.1396 75.3379 43.8701 75.832C43.6156 76.3262 43.3236 76.738 42.9941 77.0674C42.6647 77.4118 42.2529 77.584 41.7588 77.584C41.5791 77.584 41.3844 77.5465 41.1748 77.4717C40.9652 77.4118 40.7705 77.3219 40.5908 77.2021C40.4261 77.0824 40.2839 76.9401 40.1641 76.7754C40.0592 76.6107 39.9993 76.431 39.9844 76.2363ZM71.2051 64.7363C70.5013 64.7363 69.82 64.916 69.1611 65.2754C68.5023 65.6348 67.9183 66.1064 67.4092 66.6904C66.9001 67.2744 66.4958 67.9333 66.1963 68.667C65.8968 69.3857 65.7471 70.112 65.7471 70.8457C65.7471 71.1452 65.762 71.4596 65.792 71.7891C65.8369 72.1035 65.9268 72.3955 66.0615 72.665C66.1963 72.9346 66.3835 73.1592 66.623 73.3389C66.8776 73.5186 67.2145 73.6084 67.6338 73.6084C67.9632 73.6084 68.3451 73.4661 68.7793 73.1816C69.2285 72.8822 69.6852 72.5078 70.1494 72.0586C70.6286 71.5944 71.0928 71.0928 71.542 70.5537C71.9912 69.9997 72.3955 69.4606 72.7549 68.9365C73.1143 68.4124 73.4062 67.9408 73.6309 67.5215C73.8555 67.1022 73.9678 66.7952 73.9678 66.6006C73.9678 66.3161 73.8704 66.0615 73.6758 65.8369C73.4811 65.5973 73.2415 65.3952 72.957 65.2305C72.6725 65.0658 72.3656 64.946 72.0361 64.8711C71.7217 64.7812 71.4447 64.7363 71.2051 64.7363ZM86.7705 70.5312C86.501 70.7858 86.1416 71.1377 85.6924 71.5869C85.2432 72.0361 84.7266 72.5228 84.1426 73.0469C83.5736 73.571 82.9596 74.1025 82.3008 74.6416C81.6569 75.1657 80.9906 75.6449 80.3018 76.0791C79.6279 76.5133 78.9616 76.8652 78.3027 77.1348C77.6439 77.4193 77.0225 77.5615 76.4385 77.5615C75.9144 77.5615 75.4652 77.4492 75.0908 77.2246C74.7165 77 74.402 76.708 74.1475 76.3486C73.9079 75.9893 73.7282 75.585 73.6084 75.1357C73.4886 74.6715 73.4287 74.1999 73.4287 73.7207C73.4287 73.4062 73.4512 73.0993 73.4961 72.7998C73.541 72.4854 73.6159 72.1934 73.7207 71.9238C73.2565 72.5527 72.7249 73.2041 72.126 73.8779C71.542 74.5368 70.9056 75.1432 70.2168 75.6973C69.543 76.2363 68.8317 76.6781 68.083 77.0225C67.3493 77.3818 66.6006 77.5615 65.8369 77.5615C65.4476 77.5615 64.9909 77.4792 64.4668 77.3145C63.9577 77.1647 63.471 76.9102 63.0068 76.5508C62.5426 76.1914 62.1533 75.7272 61.8389 75.1582C61.5244 74.5892 61.3672 73.8929 61.3672 73.0693C61.3672 72.4554 61.457 71.7217 61.6367 70.8682C61.8314 70.0146 62.1159 69.1312 62.4902 68.2178C62.8796 67.2894 63.3662 66.376 63.9502 65.4775C64.5492 64.5791 65.2529 63.778 66.0615 63.0742C66.8701 62.3555 67.791 61.779 68.8242 61.3447C69.8574 60.8955 71.0104 60.6709 72.2832 60.6709C72.9421 60.6709 73.5186 60.7533 74.0127 60.918C74.5068 61.0827 74.9261 61.2624 75.2705 61.457C75.6598 61.6966 76.0042 61.9587 76.3037 62.2432C76.5583 62.1084 76.8203 61.9811 77.0898 61.8613C77.3145 61.7565 77.5465 61.6667 77.7861 61.5918C78.0407 61.502 78.2578 61.457 78.4375 61.457C79.0065 61.457 79.4707 61.6143 79.8301 61.9287C80.1895 62.2432 80.3691 62.5876 80.3691 62.9619C80.3691 63.0667 80.3617 63.1491 80.3467 63.209C80.2718 63.4935 80.152 63.8529 79.9873 64.2871C79.8376 64.7214 79.6654 65.208 79.4707 65.7471C79.276 66.2712 79.0739 66.8252 78.8643 67.4092C78.6696 67.9782 78.4899 68.5397 78.3252 69.0938C78.1605 69.6478 78.0257 70.1719 77.9209 70.666C77.8161 71.1452 77.7637 71.557 77.7637 71.9014C77.7637 72.3506 77.8385 72.7249 77.9883 73.0244C78.138 73.3089 78.3926 73.4512 78.752 73.4512C78.9766 73.4512 79.2386 73.3838 79.5381 73.249C79.8525 73.0993 80.1895 72.9046 80.5488 72.665C80.9082 72.4255 81.2751 72.1559 81.6494 71.8564C82.0387 71.542 82.4131 71.2275 82.7725 70.9131C83.611 70.1644 84.502 69.3109 85.4453 68.3525C85.6849 68.1579 85.917 68.0605 86.1416 68.0605C86.4411 68.0605 86.6882 68.2103 86.8828 68.5098C87.0924 68.7943 87.1973 69.1162 87.1973 69.4756C87.1973 69.8949 87.055 70.2467 86.7705 70.5312ZM90.8809 64.3545C91.7943 64.8337 92.6104 65.3802 93.3291 65.9941C94.0479 66.6081 94.6543 67.2594 95.1484 67.9482C95.6576 68.6221 96.0394 69.3109 96.2939 70.0146C96.5635 70.7184 96.6982 71.4072 96.6982 72.0811C96.6982 72.9346 96.4512 73.7057 95.957 74.3945C95.4779 75.0684 94.8415 75.6449 94.0479 76.124C93.2692 76.5882 92.3708 76.9401 91.3525 77.1797C90.3493 77.4342 89.3311 77.5615 88.2979 77.5615C87.5192 77.5615 86.763 77.4717 86.0293 77.292C85.2956 77.1273 84.6217 76.8652 84.0078 76.5059C83.4089 76.1465 82.8923 75.6898 82.458 75.1357C82.0238 74.5667 81.7168 73.8929 81.5371 73.1143C81.5072 72.9945 81.4922 72.8971 81.4922 72.8223C81.4922 72.418 81.6344 72.0736 81.9189 71.7891C82.2035 71.4896 82.5179 71.3398 82.8623 71.3398C83.027 71.3398 83.2067 71.3698 83.4014 71.4297C83.611 71.4896 83.7682 71.6243 83.873 71.834C84.0677 72.1934 84.3372 72.5153 84.6816 72.7998C85.041 73.0843 85.4378 73.3314 85.8721 73.541C86.3063 73.7357 86.763 73.8929 87.2422 74.0127C87.7363 74.1175 88.2155 74.1699 88.6797 74.1699C89.1589 74.1699 89.6156 74.125 90.0498 74.0352C90.499 73.9453 90.8883 73.8031 91.2178 73.6084C91.5622 73.4137 91.8317 73.1667 92.0264 72.8672C92.221 72.5677 92.3184 72.2008 92.3184 71.7666C92.3184 71.0029 92.1462 70.2992 91.8018 69.6553C91.4574 69.0114 91.0081 68.4199 90.4541 67.8809C89.915 67.3268 89.2936 66.8177 88.5898 66.3535C87.901 65.8743 87.2122 65.4176 86.5234 64.9834C86.4486 64.9385 86.3363 64.8112 86.1865 64.6016C86.0368 64.377 85.9619 64.1523 85.9619 63.9277C85.9619 63.748 86.0068 63.6058 86.0967 63.501C86.3363 63.1865 86.6133 62.8646 86.9277 62.5352C87.2422 62.2057 87.5791 61.9062 87.9385 61.6367C88.2979 61.3522 88.6872 61.1276 89.1064 60.9629C89.5257 60.7832 89.96 60.6934 90.4092 60.6934C90.7386 60.6934 91.0456 60.7383 91.3301 60.8281C91.6146 60.918 91.8542 61.0378 92.0488 61.1875C92.2435 61.3223 92.3932 61.4795 92.498 61.6592C92.6178 61.8239 92.6777 61.9811 92.6777 62.1309C92.6777 62.3405 92.6253 62.5426 92.5205 62.7373C92.4157 62.932 92.2734 63.1191 92.0938 63.2988C91.929 63.4785 91.7344 63.6582 91.5098 63.8379C91.3001 64.0176 91.0905 64.1898 90.8809 64.3545ZM96.0244 73.4512C96.3838 72.6875 96.7956 71.8415 97.2598 70.9131C97.724 69.9697 98.1882 69.0413 98.6523 68.1279C99.1315 67.1995 99.5807 66.3236 100 65.5C100.419 64.6615 100.771 63.9502 101.056 63.3662L108.468 48.7891C108.558 48.5944 108.692 48.4072 108.872 48.2275C109.067 48.0479 109.284 47.8906 109.523 47.7559C109.763 47.6061 110.018 47.4938 110.287 47.4189C110.557 47.3291 110.826 47.2842 111.096 47.2842C111.755 47.2842 112.211 47.4115 112.466 47.666C112.72 47.9056 112.848 48.2051 112.848 48.5645C112.848 48.8939 112.765 49.2458 112.601 49.6201C112.436 49.9795 112.249 50.3164 112.039 50.6309C111.38 51.7539 110.744 52.8919 110.13 54.0449C109.531 55.1829 108.924 56.3359 108.311 57.5039C107.712 58.6569 107.105 59.8099 106.491 60.9629C105.877 62.1009 105.233 63.2314 104.56 64.3545C104.979 63.9502 105.421 63.5309 105.885 63.0967C106.364 62.6624 106.881 62.2656 107.435 61.9062C107.989 61.5469 108.595 61.2549 109.254 61.0303C109.913 60.7907 110.646 60.6709 111.455 60.6709C111.934 60.6709 112.391 60.7158 112.825 60.8057C113.259 60.8955 113.641 61.0452 113.971 61.2549C114.3 61.4495 114.562 61.7266 114.757 62.0859C114.951 62.4303 115.049 62.8571 115.049 63.3662C115.049 64.04 114.944 64.6615 114.734 65.2305C114.54 65.7845 114.285 66.3161 113.971 66.8252C113.656 67.3193 113.312 67.7985 112.938 68.2627C112.563 68.7119 112.204 69.1761 111.859 69.6553C111.53 70.1195 111.238 70.6061 110.983 71.1152C110.744 71.6243 110.594 72.1784 110.534 72.7773C110.534 72.8073 110.527 72.8372 110.512 72.8672C110.512 72.8971 110.512 72.9271 110.512 72.957C110.512 73.2565 110.609 73.4437 110.804 73.5186C111.013 73.5934 111.275 73.6309 111.59 73.6309C111.994 73.6309 112.428 73.556 112.893 73.4062C113.357 73.2415 113.821 73.0319 114.285 72.7773C114.764 72.5078 115.236 72.2083 115.7 71.8789C116.179 71.5495 116.629 71.2126 117.048 70.8682C117.482 70.5238 117.879 70.1943 118.238 69.8799C118.598 69.5505 118.905 69.266 119.159 69.0264C119.294 68.9066 119.436 68.8167 119.586 68.7568C119.736 68.6969 119.878 68.667 120.013 68.667C120.282 68.667 120.507 68.7718 120.687 68.9814C120.881 69.1761 120.979 69.4456 120.979 69.79C120.979 70.1045 120.866 70.4639 120.642 70.8682C120.432 71.2725 120.065 71.6768 119.541 72.0811C118.717 72.7998 117.879 73.4886 117.025 74.1475C116.172 74.8063 115.311 75.3903 114.442 75.8994C113.574 76.4085 112.705 76.8128 111.837 77.1123C110.983 77.4118 110.145 77.5615 109.321 77.5615C108.258 77.5615 107.405 77.3219 106.761 76.8428C106.117 76.3486 105.795 75.5775 105.795 74.5293C105.795 73.7656 105.922 73.0469 106.177 72.373C106.446 71.6842 106.768 71.0254 107.143 70.3965C107.532 69.7526 107.944 69.1387 108.378 68.5547C108.812 67.9557 109.194 67.3717 109.523 66.8027C109.703 66.5482 109.838 66.3161 109.928 66.1064C110.033 65.8818 110.085 65.6423 110.085 65.3877C110.085 65.1631 110.025 64.9834 109.905 64.8486C109.785 64.6989 109.598 64.624 109.344 64.624C108.46 64.624 107.644 64.8411 106.896 65.2754C106.147 65.7096 105.458 66.2637 104.829 66.9375C104.2 67.6113 103.616 68.3525 103.077 69.1611C102.538 69.9548 102.036 70.7184 101.572 71.4521C101.363 71.7816 101.146 72.1634 100.921 72.5977C100.711 73.0169 100.487 73.4512 100.247 73.9004C100.022 74.3496 99.7829 74.7988 99.5283 75.248C99.2738 75.6823 99.0042 76.0716 98.7197 76.416C98.4502 76.7604 98.1582 77.0374 97.8438 77.2471C97.5443 77.4567 97.2298 77.5615 96.9004 77.5615C96.3763 77.5615 95.972 77.4043 95.6875 77.0898C95.403 76.7904 95.2607 76.4085 95.2607 75.9443C95.2607 75.5999 95.3206 75.2406 95.4404 74.8662C95.5602 74.4769 95.7549 74.0052 96.0244 73.4512ZM146.404 56.2461C147.737 55.707 148.905 55.153 149.908 54.584C150.911 54.015 151.75 53.4535 152.424 52.8994C153.098 52.3304 153.607 51.7839 153.951 51.2598C154.296 50.7357 154.468 50.2565 154.468 49.8223C154.468 49.6725 154.393 49.5003 154.243 49.3057C154.093 49.111 153.861 48.9313 153.547 48.7666C153.247 48.6019 152.866 48.4671 152.401 48.3623C151.937 48.2425 151.398 48.1826 150.784 48.1826C149.137 48.1826 147.61 48.3848 146.202 48.7891C144.795 49.1784 143.514 49.6576 142.361 50.2266C141.208 50.7956 140.19 51.3945 139.307 52.0234C138.423 52.6374 137.682 53.1764 137.083 53.6406C136.709 53.9251 136.379 54.2096 136.095 54.4941C135.825 54.7637 135.556 55.0107 135.286 55.2354C135.032 55.445 134.755 55.6172 134.455 55.752C134.156 55.8867 133.796 55.9541 133.377 55.9541C132.748 55.9541 132.254 55.8044 131.895 55.5049C131.55 55.2054 131.378 54.7861 131.378 54.2471C131.378 53.6032 131.632 52.9219 132.142 52.2031C132.651 51.4694 133.354 50.7432 134.253 50.0244C135.151 49.3057 136.207 48.6243 137.42 47.9805C138.633 47.3216 139.936 46.7451 141.328 46.251C142.736 45.7568 144.196 45.36 145.708 45.0605C147.235 44.7611 148.763 44.6113 150.29 44.6113C151.862 44.6113 153.217 44.7386 154.355 44.9932C155.493 45.2477 156.422 45.5996 157.141 46.0488C157.874 46.498 158.413 47.0296 158.758 47.6436C159.117 48.2575 159.297 48.9238 159.297 49.6426C159.297 50.3613 159.057 51.11 158.578 51.8887C158.099 52.6673 157.41 53.446 156.512 54.2246C155.628 55.0033 154.543 55.752 153.255 56.4707C151.982 57.1745 150.545 57.8184 148.942 58.4023C150.53 58.9264 151.817 59.4805 152.806 60.0645C153.809 60.6335 154.588 61.2324 155.142 61.8613C155.711 62.4753 156.092 63.1191 156.287 63.793C156.482 64.4518 156.579 65.1331 156.579 65.8369C156.579 66.8701 156.295 67.8883 155.726 68.8916C155.157 69.8949 154.363 70.8457 153.345 71.7441C152.341 72.6276 151.144 73.4512 149.751 74.2148C148.373 74.9635 146.868 75.6149 145.236 76.1689C143.604 76.708 141.882 77.1273 140.07 77.4268C138.258 77.7412 136.424 77.8984 134.567 77.8984C133.909 77.8984 133.242 77.861 132.568 77.7861C131.895 77.7113 131.273 77.5765 130.704 77.3818C130.15 77.1872 129.693 76.9251 129.334 76.5957C128.99 76.2663 128.817 75.8395 128.817 75.3154C128.817 75.2555 128.817 75.2031 128.817 75.1582C128.832 75.0983 128.847 75.0309 128.862 74.9561C128.922 74.8363 128.99 74.694 129.064 74.5293C129.139 74.3496 129.312 74.1774 129.581 74.0127C129.851 73.848 130.27 73.7132 130.839 73.6084C131.423 73.4886 132.254 73.4287 133.332 73.4287C135.204 69.9997 136.746 67.0498 137.959 64.5791C139.187 62.0934 140.213 60.0495 141.036 58.4473C141.86 56.8451 142.549 55.6621 143.103 54.8984C143.672 54.1348 144.226 53.7529 144.765 53.7529C145.004 53.7529 145.236 53.7904 145.461 53.8652C145.686 53.9401 145.88 54.0449 146.045 54.1797C146.225 54.2995 146.367 54.4567 146.472 54.6514C146.576 54.8311 146.629 55.0332 146.629 55.2578C146.509 55.4076 146.442 55.5648 146.427 55.7295C146.412 55.8792 146.404 56.0514 146.404 56.2461ZM145.169 60.5361C144.495 62.0635 143.859 63.4336 143.26 64.6465C142.676 65.8594 142.122 66.9749 141.598 67.9932C141.074 68.9964 140.572 69.9398 140.093 70.8232C139.629 71.6917 139.172 72.5452 138.723 73.3838C140.46 73.234 142.077 72.9346 143.574 72.4854C145.087 72.0212 146.397 71.4521 147.505 70.7783C148.628 70.1045 149.504 69.3483 150.133 68.5098C150.777 67.6712 151.099 66.7878 151.099 65.8594C151.099 65.4401 151.001 64.9984 150.807 64.5342C150.627 64.07 150.312 63.6058 149.863 63.1416C149.414 62.6774 148.808 62.2207 148.044 61.7715C147.28 61.3223 146.322 60.9105 145.169 60.5361ZM182.117 71.6318C181.458 72.3805 180.687 73.1143 179.804 73.833C178.935 74.5368 178.037 75.1657 177.108 75.7197C176.18 76.2738 175.267 76.7155 174.368 77.0449C173.47 77.3893 172.661 77.5615 171.942 77.5615C171.224 77.5615 170.64 77.3594 170.19 76.9551C169.741 76.5508 169.517 75.862 169.517 74.8887C169.517 74.1999 169.636 73.3988 169.876 72.4854C169.487 73.0693 169 73.6608 168.416 74.2598C167.832 74.8587 167.166 75.4053 166.417 75.8994C165.668 76.3936 164.83 76.7904 163.901 77.0898C162.973 77.4043 161.962 77.5615 160.869 77.5615C160.375 77.5615 159.896 77.5091 159.432 77.4043C158.982 77.2995 158.586 77.1198 158.241 76.8652C157.897 76.6107 157.62 76.2738 157.41 75.8545C157.201 75.4202 157.096 74.8812 157.096 74.2373C157.096 74.2223 157.126 73.9977 157.186 73.5635C157.245 73.1143 157.433 72.418 157.747 71.4746C158.076 70.5163 158.578 69.2809 159.252 67.7686C159.926 66.2562 160.877 64.4219 162.104 62.2656C162.419 61.6966 162.778 61.2923 163.183 61.0527C163.602 60.7982 164.051 60.6709 164.53 60.6709C164.74 60.6709 164.957 60.7008 165.182 60.7607C165.406 60.8057 165.616 60.888 165.811 61.0078C166.005 61.1126 166.162 61.2549 166.282 61.4346C166.402 61.5993 166.462 61.7939 166.462 62.0186C166.462 62.1683 166.439 62.3105 166.395 62.4453C166.32 62.6999 166.155 63.0368 165.9 63.4561C165.661 63.8604 165.376 64.332 165.047 64.8711C164.717 65.3952 164.366 65.9642 163.991 66.5781C163.632 67.1921 163.295 67.8285 162.98 68.4873C162.666 69.1462 162.396 69.82 162.172 70.5088C161.947 71.1826 161.82 71.8415 161.79 72.4854C161.79 72.7549 161.865 73.002 162.015 73.2266C162.164 73.4512 162.411 73.5635 162.756 73.5635C163.729 73.5635 164.658 73.2939 165.541 72.7549C166.424 72.2158 167.241 71.5495 167.989 70.7559C168.738 69.9473 169.412 69.0863 170.011 68.1729C170.625 67.2445 171.134 66.3984 171.538 65.6348C171.823 65.1257 172.07 64.5791 172.279 63.9951C172.504 63.4111 172.743 62.8721 172.998 62.3779C173.253 61.8838 173.545 61.472 173.874 61.1426C174.203 60.8132 174.615 60.6484 175.109 60.6484C175.648 60.6484 176.075 60.8206 176.39 61.165C176.704 61.5094 176.861 61.9212 176.861 62.4004C176.861 62.6699 176.757 63.0443 176.547 63.5234C176.352 63.9876 176.098 64.5267 175.783 65.1406C175.484 65.7396 175.154 66.3835 174.795 67.0723C174.436 67.7611 174.099 68.4648 173.784 69.1836C173.485 69.8874 173.23 70.5837 173.021 71.2725C172.826 71.9463 172.729 72.5752 172.729 73.1592C172.729 73.6982 173.058 73.9678 173.717 73.9678C174.181 73.9678 174.757 73.833 175.446 73.5635C176.135 73.2939 176.854 72.9196 177.603 72.4404C178.366 71.9463 179.122 71.3698 179.871 70.7109C180.635 70.0521 181.309 69.3408 181.893 68.5771L182.117 71.6318ZM186.879 63.9053C187.463 63.5459 188.062 63.2165 188.676 62.917C189.305 62.6175 189.911 62.363 190.495 62.1533C191.079 61.9287 191.633 61.7565 192.157 61.6367C192.696 61.502 193.175 61.4346 193.595 61.4346C194.269 61.4346 194.785 61.5993 195.145 61.9287C195.519 62.2432 195.706 62.7822 195.706 63.5459C195.706 63.7106 195.699 63.8903 195.684 64.085C195.669 64.2646 195.639 64.4593 195.594 64.6689C195.519 65.0583 195.294 65.515 194.92 66.0391C194.546 66.5632 194.104 67.1097 193.595 67.6787C193.101 68.2477 192.562 68.8242 191.978 69.4082C191.409 69.9772 190.877 70.5088 190.383 71.0029C189.904 71.4821 189.499 71.9014 189.17 72.2607C188.855 72.6201 188.698 72.8672 188.698 73.002C188.698 73.1217 188.706 73.2041 188.721 73.249C188.736 73.2939 188.803 73.3164 188.923 73.3164C189.731 72.972 190.63 72.5602 191.618 72.0811C192.621 71.5869 193.617 71.0853 194.605 70.5762C195.594 70.0671 196.53 69.5729 197.413 69.0938C198.297 68.5996 199.045 68.1729 199.659 67.8135C199.794 67.7386 199.929 67.6787 200.063 67.6338C200.213 67.5739 200.348 67.5439 200.468 67.5439C200.737 67.5439 200.962 67.6338 201.142 67.8135C201.321 67.9932 201.411 68.2327 201.411 68.5322C201.411 68.8766 201.261 69.2734 200.962 69.7227C200.677 70.1569 200.191 70.6136 199.502 71.0928C198.978 71.4222 198.386 71.7965 197.728 72.2158C197.084 72.6201 196.402 73.0469 195.684 73.4961C194.98 73.9303 194.261 74.3571 193.527 74.7764C192.809 75.1956 192.112 75.57 191.438 75.8994C190.765 76.2288 190.128 76.4984 189.529 76.708C188.945 76.9027 188.436 77 188.002 77C186.969 77 186.19 76.7529 185.666 76.2588C185.157 75.7646 184.902 75.1283 184.902 74.3496C184.902 74.2298 184.91 74.14 184.925 74.0801C185.03 73.4212 185.224 72.7848 185.509 72.1709C185.793 71.557 186.115 70.973 186.475 70.4189C186.834 69.8649 187.208 69.3408 187.598 68.8467C187.987 68.3376 188.339 67.8659 188.653 67.4316C188.983 66.9824 189.252 66.5706 189.462 66.1963C189.672 65.8219 189.776 65.4775 189.776 65.1631C189.776 65.0882 189.761 65.0133 189.731 64.9385C189.701 64.8636 189.634 64.8262 189.529 64.8262C189.35 64.8262 189.05 64.8936 188.631 65.0283C188.227 65.1631 187.792 65.3428 187.328 65.5674C186.864 65.792 186.422 66.054 186.003 66.3535C185.584 66.638 185.284 66.945 185.104 67.2744C184.865 67.6937 184.588 68.2253 184.273 68.8691C183.959 69.513 183.63 70.1868 183.285 70.8906C182.956 71.5944 182.634 72.2907 182.319 72.9795C182.005 73.6683 181.735 74.2598 181.511 74.7539C181.331 75.1882 181.091 75.5775 180.792 75.9219C180.507 76.2663 180.193 76.5583 179.849 76.7979C179.504 77.0374 179.152 77.2246 178.793 77.3594C178.434 77.4941 178.104 77.5615 177.805 77.5615C177.46 77.5615 177.183 77.4717 176.974 77.292C176.779 77.1123 176.682 76.8203 176.682 76.416C176.682 76.2513 176.704 76.0492 176.749 75.8096C176.809 75.555 176.921 75.278 177.086 74.9785C177.355 74.4694 177.625 73.9154 177.895 73.3164C178.179 72.7174 178.501 72.0361 178.86 71.2725C179.22 70.4938 179.632 69.6104 180.096 68.6221C180.575 67.6188 181.136 66.4658 181.78 65.1631C181.571 64.9834 181.391 64.7663 181.241 64.5117C181.106 64.2422 181.039 63.9128 181.039 63.5234C181.039 63.1641 181.114 62.8571 181.264 62.6025C181.413 62.333 181.616 62.1159 181.87 61.9512C182.125 61.7865 182.417 61.6667 182.746 61.5918C183.09 61.502 183.45 61.457 183.824 61.457C184.214 61.457 184.603 61.4945 184.992 61.5693C185.382 61.6292 185.726 61.7266 186.025 61.8613C186.34 61.9961 186.594 62.1608 186.789 62.3555C186.984 62.5501 187.081 62.7747 187.081 63.0293C187.081 63.0742 187.066 63.1341 187.036 63.209C187.006 63.2839 186.969 63.3662 186.924 63.4561C186.894 63.5459 186.864 63.6283 186.834 63.7031C186.804 63.778 186.789 63.8379 186.789 63.8828C186.789 63.9128 186.797 63.9277 186.812 63.9277H186.834L186.879 63.9053ZM208.419 60.6709C209.078 60.6709 209.654 60.7533 210.148 60.918C210.643 61.0827 211.062 61.2624 211.406 61.457C211.796 61.6966 212.14 61.9587 212.439 62.2432C212.649 62.1084 212.874 61.9811 213.113 61.8613C213.323 61.7565 213.555 61.6667 213.81 61.5918C214.064 61.502 214.319 61.457 214.573 61.457C215.232 61.457 215.741 61.5918 216.101 61.8613C216.46 62.1309 216.64 62.4528 216.64 62.8271C216.64 63.0218 216.587 63.2165 216.482 63.4111L211.227 73.3613L211.653 72.9795C213.42 71.9463 214.873 71.1377 216.011 70.5537C217.149 69.9548 218.055 69.513 218.729 69.2285C219.402 68.944 219.882 68.7718 220.166 68.7119C220.465 68.637 220.653 68.5996 220.728 68.5996C221.072 68.5996 221.334 68.7344 221.514 69.0039C221.708 69.2585 221.806 69.5804 221.806 69.9697C221.806 70.404 221.678 70.8457 221.424 71.2949C221.184 71.7441 220.81 72.0661 220.301 72.2607C219.627 72.6051 218.841 72.9795 217.942 73.3838C217.044 73.7731 216.108 74.2074 215.135 74.6865C214.161 75.1657 213.181 75.7048 212.192 76.3037C211.219 76.8877 210.306 77.5391 209.452 78.2578L205.095 86.1416C204.735 86.9951 204.406 87.6914 204.106 88.2305C203.822 88.7695 203.537 89.1963 203.253 89.5107C202.968 89.8252 202.676 90.0423 202.377 90.1621C202.077 90.2819 201.733 90.3418 201.344 90.3418C200.76 90.3418 200.296 90.1396 199.951 89.7354C199.622 89.3311 199.457 88.8444 199.457 88.2754C199.457 87.6764 199.599 86.9801 199.884 86.1865C200.168 85.3929 200.565 84.5319 201.074 83.6035C201.598 82.6901 202.227 81.7243 202.961 80.7061C203.695 79.7028 204.511 78.6771 205.409 77.6289L208.194 74.0801C207.625 74.6042 207.064 75.0534 206.51 75.4277C205.956 75.8021 205.424 76.109 204.915 76.3486C204.406 76.5732 203.927 76.738 203.478 76.8428C203.043 76.9476 202.661 77 202.332 77C201.733 77 201.179 76.8652 200.67 76.5957C200.161 76.3112 199.719 75.9219 199.345 75.4277C198.985 74.9336 198.701 74.3496 198.491 73.6758C198.282 73.002 198.177 72.2682 198.177 71.4746C198.177 69.8275 198.491 68.3376 199.12 67.0049C199.764 65.6722 200.58 64.5417 201.568 63.6133C202.572 62.6699 203.672 61.9437 204.87 61.4346C206.083 60.9255 207.266 60.6709 208.419 60.6709ZM207.565 64.624C206.862 64.624 206.18 64.8037 205.521 65.1631C204.863 65.5075 204.279 65.9717 203.77 66.5557C203.26 67.1247 202.856 67.7835 202.557 68.5322C202.257 69.2809 202.107 70.0521 202.107 70.8457C202.107 71.0853 202.122 71.3473 202.152 71.6318C202.197 71.9014 202.28 72.1559 202.399 72.3955C202.534 72.6351 202.721 72.8372 202.961 73.002C203.215 73.1517 203.56 73.2266 203.994 73.2266C204.309 73.2266 204.675 73.0918 205.095 72.8223C205.529 72.5378 205.971 72.1859 206.42 71.7666C206.884 71.3324 207.333 70.8607 207.768 70.3516C208.202 69.8275 208.591 69.3184 208.936 68.8242C209.295 68.3301 209.579 67.8883 209.789 67.499C209.999 67.0947 210.104 66.7952 210.104 66.6006C210.104 66.2712 210.014 65.9867 209.834 65.7471C209.654 65.4925 209.43 65.2829 209.16 65.1182C208.906 64.9535 208.629 64.8337 208.329 64.7588C208.045 64.6689 207.79 64.624 207.565 64.624ZM228.477 63.748C228.402 63.7331 228.334 63.7256 228.274 63.7256C228.215 63.7256 228.147 63.7256 228.072 63.7256C227.503 63.7256 226.972 63.8379 226.478 64.0625C225.983 64.2871 225.527 64.5866 225.107 64.9609C224.703 65.3203 224.336 65.7321 224.007 66.1963C223.692 66.6605 223.408 67.1247 223.153 67.5889C222.899 68.0381 222.682 68.4723 222.502 68.8916C222.337 69.3109 222.21 69.6628 222.12 69.9473C222.644 69.6777 223.183 69.3708 223.737 69.0264C224.306 68.682 224.838 68.3525 225.332 68.0381C225.826 67.7236 226.253 67.4391 226.612 67.1846C226.987 66.93 227.249 66.7578 227.398 66.668C228.072 66.2487 228.536 65.8594 228.791 65.5C229.046 65.1257 229.173 64.8037 229.173 64.5342C229.173 64.3096 229.098 64.1299 228.948 63.9951C228.813 63.8604 228.656 63.778 228.477 63.748ZM229.285 60.6484C230.528 60.6484 231.456 60.9479 232.07 61.5469C232.684 62.1458 232.991 62.9769 232.991 64.04C232.991 64.6689 232.826 65.3278 232.497 66.0166C232.168 66.7054 231.599 67.4092 230.79 68.1279C229.981 68.8317 228.896 69.5579 227.533 70.3066C226.186 71.0404 224.493 71.7816 222.457 72.5303C222.532 72.9645 222.764 73.3089 223.153 73.5635C223.543 73.8031 224.059 73.9229 224.703 73.9229C225.392 73.9229 226.126 73.8255 226.904 73.6309C227.698 73.4212 228.477 73.1592 229.24 72.8447C230.019 72.5303 230.775 72.1934 231.509 71.834C232.243 71.4596 232.901 71.1077 233.485 70.7783C234.084 70.4489 234.578 70.1644 234.968 69.9248C235.372 69.6852 235.642 69.5355 235.776 69.4756C235.911 69.3857 236.031 69.3333 236.136 69.3184C236.256 69.3034 236.36 69.2959 236.45 69.2959C236.63 69.2959 236.78 69.3408 236.899 69.4307C237.019 69.5055 237.117 69.6029 237.191 69.7227C237.281 69.8275 237.341 69.9473 237.371 70.082C237.401 70.2018 237.416 70.3066 237.416 70.3965C237.416 70.5312 237.401 70.696 237.371 70.8906C237.341 71.0703 237.229 71.2799 237.034 71.5195C236.959 71.5944 236.705 71.7965 236.271 72.126C235.851 72.4554 235.305 72.8447 234.631 73.2939C233.957 73.7432 233.171 74.2223 232.272 74.7314C231.389 75.2256 230.446 75.6823 229.442 76.1016C228.454 76.5208 227.421 76.8652 226.343 77.1348C225.265 77.4193 224.201 77.5615 223.153 77.5615C222.255 77.5615 221.454 77.3893 220.75 77.0449C220.061 76.7005 219.47 76.2363 218.976 75.6523C218.496 75.0684 218.13 74.3945 217.875 73.6309C217.62 72.8672 217.493 72.0661 217.493 71.2275C217.493 70.5837 217.62 69.8799 217.875 69.1162C218.13 68.3376 218.496 67.5589 218.976 66.7803C219.455 66.0016 220.039 65.2454 220.728 64.5117C221.431 63.763 222.217 63.1042 223.086 62.5352C223.954 61.9661 224.905 61.5094 225.938 61.165C226.987 60.8206 228.102 60.6484 229.285 60.6484ZM242.852 63.9053C243.436 63.5459 244.035 63.2165 244.648 62.917C245.277 62.6175 245.884 62.363 246.468 62.1533C247.052 61.9287 247.606 61.7565 248.13 61.6367C248.669 61.502 249.148 61.4346 249.567 61.4346C250.241 61.4346 250.758 61.5993 251.117 61.9287C251.492 62.2432 251.679 62.7822 251.679 63.5459C251.679 63.7106 251.671 63.8903 251.656 64.085C251.641 64.2646 251.611 64.4593 251.566 64.6689C251.492 65.0583 251.267 65.515 250.893 66.0391C250.518 66.5632 250.076 67.1097 249.567 67.6787C249.073 68.2477 248.534 68.8242 247.95 69.4082C247.381 69.9772 246.85 70.5088 246.355 71.0029C245.876 71.4821 245.472 71.9014 245.143 72.2607C244.828 72.6201 244.671 72.8672 244.671 73.002C244.671 73.1217 244.678 73.2041 244.693 73.249C244.708 73.2939 244.776 73.3164 244.896 73.3164C245.704 72.972 246.603 72.5602 247.591 72.0811C248.594 71.5869 249.59 71.0853 250.578 70.5762C251.566 70.0671 252.502 69.5729 253.386 69.0938C254.269 68.5996 255.018 68.1729 255.632 67.8135C255.767 67.7386 255.901 67.6787 256.036 67.6338C256.186 67.5739 256.321 67.5439 256.44 67.5439C256.71 67.5439 256.935 67.6338 257.114 67.8135C257.294 67.9932 257.384 68.2327 257.384 68.5322C257.384 68.8766 257.234 69.2734 256.935 69.7227C256.65 70.1569 256.163 70.6136 255.475 71.0928C254.951 71.4222 254.359 71.7965 253.7 72.2158C253.056 72.6201 252.375 73.0469 251.656 73.4961C250.952 73.9303 250.234 74.3571 249.5 74.7764C248.781 75.1956 248.085 75.57 247.411 75.8994C246.737 76.2288 246.101 76.4984 245.502 76.708C244.918 76.9027 244.409 77 243.975 77C242.941 77 242.163 76.7529 241.639 76.2588C241.13 75.7646 240.875 75.1283 240.875 74.3496C240.875 74.2298 240.882 74.14 240.897 74.0801C241.002 73.4212 241.197 72.7848 241.481 72.1709C241.766 71.557 242.088 70.973 242.447 70.4189C242.807 69.8649 243.181 69.3408 243.57 68.8467C243.96 68.3376 244.312 67.8659 244.626 67.4316C244.955 66.9824 245.225 66.5706 245.435 66.1963C245.644 65.8219 245.749 65.4775 245.749 65.1631C245.749 65.0882 245.734 65.0133 245.704 64.9385C245.674 64.8636 245.607 64.8262 245.502 64.8262C245.322 64.8262 245.023 64.8936 244.604 65.0283C244.199 65.1631 243.765 65.3428 243.301 65.5674C242.837 65.792 242.395 66.054 241.976 66.3535C241.556 66.638 241.257 66.945 241.077 67.2744C240.838 67.6937 240.561 68.2253 240.246 68.8691C239.932 69.513 239.602 70.1868 239.258 70.8906C238.928 71.5944 238.606 72.2907 238.292 72.9795C237.978 73.6683 237.708 74.2598 237.483 74.7539C237.304 75.1882 237.064 75.5775 236.765 75.9219C236.48 76.2663 236.166 76.5583 235.821 76.7979C235.477 77.0374 235.125 77.2246 234.766 77.3594C234.406 77.4941 234.077 77.5615 233.777 77.5615C233.433 77.5615 233.156 77.4717 232.946 77.292C232.752 77.1123 232.654 76.8203 232.654 76.416C232.654 76.2513 232.677 76.0492 232.722 75.8096C232.782 75.555 232.894 75.278 233.059 74.9785C233.328 74.4694 233.598 73.9154 233.867 73.3164C234.152 72.7174 234.474 72.0361 234.833 71.2725C235.192 70.4938 235.604 69.6104 236.068 68.6221C236.548 67.6188 237.109 66.4658 237.753 65.1631C237.543 64.9834 237.364 64.7663 237.214 64.5117C237.079 64.2422 237.012 63.9128 237.012 63.5234C237.012 63.1641 237.087 62.8571 237.236 62.6025C237.386 62.333 237.588 62.1159 237.843 61.9512C238.097 61.7865 238.389 61.6667 238.719 61.5918C239.063 61.502 239.423 61.457 239.797 61.457C240.186 61.457 240.576 61.4945 240.965 61.5693C241.354 61.6292 241.699 61.7266 241.998 61.8613C242.312 61.9961 242.567 62.1608 242.762 62.3555C242.956 62.5501 243.054 62.7747 243.054 63.0293C243.054 63.0742 243.039 63.1341 243.009 63.209C242.979 63.2839 242.941 63.3662 242.896 63.4561C242.867 63.5459 242.837 63.6283 242.807 63.7031C242.777 63.778 242.762 63.8379 242.762 63.8828C242.762 63.9128 242.769 63.9277 242.784 63.9277H242.807L242.852 63.9053ZM260.416 64.3545C261.329 64.8337 262.146 65.3802 262.864 65.9941C263.583 66.6081 264.189 67.2594 264.684 67.9482C265.193 68.6221 265.575 69.3109 265.829 70.0146C266.099 70.7184 266.233 71.4072 266.233 72.0811C266.233 72.9346 265.986 73.7057 265.492 74.3945C265.013 75.0684 264.377 75.6449 263.583 76.124C262.804 76.5882 261.906 76.9401 260.888 77.1797C259.884 77.4342 258.866 77.5615 257.833 77.5615C257.054 77.5615 256.298 77.4717 255.564 77.292C254.831 77.1273 254.157 76.8652 253.543 76.5059C252.944 76.1465 252.427 75.6898 251.993 75.1357C251.559 74.5667 251.252 73.8929 251.072 73.1143C251.042 72.9945 251.027 72.8971 251.027 72.8223C251.027 72.418 251.17 72.0736 251.454 71.7891C251.739 71.4896 252.053 71.3398 252.397 71.3398C252.562 71.3398 252.742 71.3698 252.937 71.4297C253.146 71.4896 253.303 71.6243 253.408 71.834C253.603 72.1934 253.872 72.5153 254.217 72.7998C254.576 73.0843 254.973 73.3314 255.407 73.541C255.841 73.7357 256.298 73.8929 256.777 74.0127C257.271 74.1175 257.751 74.1699 258.215 74.1699C258.694 74.1699 259.151 74.125 259.585 74.0352C260.034 73.9453 260.424 73.8031 260.753 73.6084C261.097 73.4137 261.367 73.1667 261.562 72.8672C261.756 72.5677 261.854 72.2008 261.854 71.7666C261.854 71.0029 261.681 70.2992 261.337 69.6553C260.993 69.0114 260.543 68.4199 259.989 67.8809C259.45 67.3268 258.829 66.8177 258.125 66.3535C257.436 65.8743 256.747 65.4176 256.059 64.9834C255.984 64.9385 255.871 64.8112 255.722 64.6016C255.572 64.377 255.497 64.1523 255.497 63.9277C255.497 63.748 255.542 63.6058 255.632 63.501C255.871 63.1865 256.148 62.8646 256.463 62.5352C256.777 62.2057 257.114 61.9062 257.474 61.6367C257.833 61.3522 258.222 61.1276 258.642 60.9629C259.061 60.7832 259.495 60.6934 259.944 60.6934C260.274 60.6934 260.581 60.7383 260.865 60.8281C261.15 60.918 261.389 61.0378 261.584 61.1875C261.779 61.3223 261.928 61.4795 262.033 61.6592C262.153 61.8239 262.213 61.9811 262.213 62.1309C262.213 62.3405 262.16 62.5426 262.056 62.7373C261.951 62.932 261.809 63.1191 261.629 63.2988C261.464 63.4785 261.27 63.6582 261.045 63.8379C260.835 64.0176 260.626 64.1898 260.416 64.3545Z" fill="black"/>
<rect x="10" y="89" width="249" height="46" rx="10" fill="#9A1C1C"/>
<path d="M54.1814 95.249C55.9574 95.249 57.5607 95.5697 58.9914 96.211C60.4221 96.8277 61.5567 97.765 62.3954 99.023C63.2341 100.256 63.6534 101.761 63.6534 103.537C63.6534 105.066 63.3081 106.546 62.6174 107.977C61.9514 109.408 60.8167 110.493 59.2134 111.233L65.9474 122H61.7664L55.4394 112.121C55.1681 112.146 54.8844 112.158 54.5884 112.158H50.6294V122H47.0404V95.249H54.1814ZM54.5144 108.68C55.9451 108.68 57.0427 108.421 57.8074 107.903C58.5967 107.36 59.1517 106.707 59.4724 105.942C59.7931 105.153 59.9534 104.4 59.9534 103.685C59.9534 102.97 59.7807 102.23 59.4354 101.465C59.09 100.7 58.5351 100.047 57.7704 99.504C57.0304 98.9613 56.0314 98.69 54.7734 98.69H50.6294V108.68H54.5144ZM77.2494 122.37C75.5228 122.37 74.0181 122.025 72.7354 121.334C71.4774 120.619 70.5031 119.644 69.8124 118.411C69.1464 117.178 68.8134 115.784 68.8134 114.23C68.8134 112.725 69.1834 111.356 69.9234 110.123C70.6881 108.865 71.7118 107.878 72.9944 107.163C74.3018 106.423 75.7448 106.053 77.3234 106.053C79.3461 106.053 81.0234 106.645 82.3554 107.829C83.6874 109.013 84.6001 110.641 85.0934 112.713L72.9574 116.968C73.3768 117.733 73.9688 118.337 74.7334 118.781C75.4981 119.2 76.3614 119.41 77.3234 119.41C78.0141 119.41 78.6678 119.287 79.2844 119.04C79.9011 118.793 80.4931 118.473 81.0604 118.078L82.6514 120.631C81.8621 121.149 80.9864 121.568 80.0244 121.889C79.0871 122.21 78.1621 122.37 77.2494 122.37ZM72.2174 114.045C72.1928 114.341 72.2051 114.625 72.2544 114.896L81.1714 111.603C80.8261 110.863 80.3204 110.209 79.6544 109.642C79.0131 109.075 78.1498 108.791 77.0644 108.791C75.6584 108.791 74.4991 109.284 73.5864 110.271C72.6738 111.258 72.2174 112.516 72.2174 114.045ZM93.6971 122.296C92.5871 122.296 91.5141 122.111 90.4781 121.741C89.4668 121.346 88.6281 120.767 87.9621 120.002L89.4421 118.004C90.0588 118.621 90.7124 119.089 91.4031 119.41C92.0938 119.706 92.7598 119.854 93.4011 119.854C94.1411 119.854 94.7824 119.706 95.3251 119.41C95.8924 119.114 96.1761 118.608 96.1761 117.893C96.1761 117.35 95.9911 116.919 95.6211 116.598C95.2758 116.277 94.8194 116.031 94.2521 115.858C93.7094 115.661 93.1421 115.463 92.5501 115.266C89.9354 114.427 88.6281 112.935 88.6281 110.789C88.6281 110 88.8254 109.247 89.2201 108.532C89.6394 107.817 90.2438 107.237 91.0331 106.793C91.8471 106.349 92.8461 106.127 94.0301 106.127C95.0908 106.127 96.0404 106.263 96.8791 106.534C97.7178 106.805 98.5071 107.237 99.2471 107.829L97.8781 109.938C97.4341 109.494 96.9038 109.161 96.2871 108.939C95.6951 108.692 95.1524 108.557 94.6591 108.532C93.9931 108.532 93.4011 108.692 92.8831 109.013C92.3898 109.334 92.1431 109.778 92.1431 110.345C92.1184 110.863 92.2788 111.282 92.6241 111.603C92.9694 111.899 93.4134 112.146 93.9561 112.343C94.5234 112.54 95.0908 112.725 95.6581 112.898C96.7681 113.268 97.7054 113.774 98.4701 114.415C99.2594 115.056 99.6541 115.994 99.6541 117.227C99.6541 118.608 99.1608 119.805 98.1741 120.816C97.1874 121.803 95.6951 122.296 93.6971 122.296ZM105.952 99.948H109.43V106.719H113.611V109.457H109.43V122H105.952V109.457H103.14V106.719H105.952V99.948ZM124.206 122.37C122.75 122.37 121.431 122.062 120.247 121.445C119.087 120.828 118.162 119.928 117.472 118.744C116.806 117.535 116.473 116.068 116.473 114.341C116.473 112.614 116.818 111.134 117.509 109.901C118.224 108.668 119.174 107.718 120.358 107.052C121.566 106.386 122.886 106.053 124.317 106.053C125.698 106.053 126.87 106.349 127.832 106.941C128.794 107.533 129.546 108.248 130.089 109.087L130.348 106.682H133.53V122H130.089V119.484C129.793 119.879 129.361 120.298 128.794 120.742C128.251 121.186 127.585 121.568 126.796 121.889C126.031 122.21 125.168 122.37 124.206 122.37ZM125.131 119.521C126.389 119.521 127.462 119.176 128.35 118.485C129.238 117.77 129.817 116.808 130.089 115.599V112.565C129.793 111.504 129.176 110.629 128.239 109.938C127.301 109.247 126.228 108.902 125.02 108.902C124.082 108.902 123.231 109.124 122.467 109.568C121.702 110.012 121.085 110.629 120.617 111.418C120.173 112.207 119.951 113.12 119.951 114.156C119.951 115.167 120.185 116.08 120.654 116.894C121.122 117.683 121.751 118.325 122.541 118.818C123.33 119.287 124.193 119.521 125.131 119.521ZM144.404 122.592C142.998 122.592 141.839 122.173 140.926 121.334C140.014 120.471 139.545 119.361 139.52 118.004V106.682H142.961V116.783C143.011 117.622 143.257 118.3 143.701 118.818C144.145 119.336 144.836 119.607 145.773 119.632C146.612 119.632 147.377 119.385 148.067 118.892C148.758 118.374 149.301 117.683 149.695 116.82C150.115 115.932 150.324 114.933 150.324 113.823V106.682H153.765V122H150.657L150.398 119.114C149.905 120.125 149.116 120.964 148.03 121.63C146.97 122.271 145.761 122.592 144.404 122.592ZM162.826 106.682L163.085 110.271C163.504 109.408 164.084 108.668 164.824 108.051C165.564 107.41 166.328 106.929 167.118 106.608C167.932 106.263 168.635 106.078 169.227 106.053L169.079 109.494C167.919 109.445 166.896 109.679 166.008 110.197C165.12 110.69 164.429 111.369 163.936 112.232C163.442 113.095 163.196 114.02 163.196 115.007V122H159.755V106.682H162.826ZM179.706 122.37C178.25 122.37 176.931 122.062 175.747 121.445C174.587 120.828 173.662 119.928 172.972 118.744C172.306 117.535 171.973 116.068 171.973 114.341C171.973 112.614 172.318 111.134 173.009 109.901C173.724 108.668 174.674 107.718 175.858 107.052C177.066 106.386 178.386 106.053 179.817 106.053C181.198 106.053 182.37 106.349 183.332 106.941C184.294 107.533 185.046 108.248 185.589 109.087L185.848 106.682H189.03V122H185.589V119.484C185.293 119.879 184.861 120.298 184.294 120.742C183.751 121.186 183.085 121.568 182.296 121.889C181.531 122.21 180.668 122.37 179.706 122.37ZM180.631 119.521C181.889 119.521 182.962 119.176 183.85 118.485C184.738 117.77 185.317 116.808 185.589 115.599V112.565C185.293 111.504 184.676 110.629 183.739 109.938C182.801 109.247 181.728 108.902 180.52 108.902C179.582 108.902 178.731 109.124 177.967 109.568C177.202 110.012 176.585 110.629 176.117 111.418C175.673 112.207 175.451 113.12 175.451 114.156C175.451 115.167 175.685 116.08 176.154 116.894C176.622 117.683 177.251 118.325 178.041 118.818C178.83 119.287 179.693 119.521 180.631 119.521ZM198.128 106.682L198.35 109.642C198.868 108.557 199.67 107.693 200.755 107.052C201.841 106.411 203.099 106.09 204.529 106.09C205.96 106.09 207.132 106.522 208.044 107.385C208.982 108.224 209.475 109.321 209.524 110.678V122H206.046V111.862C205.997 111.048 205.738 110.382 205.269 109.864C204.825 109.346 204.122 109.075 203.16 109.05C201.828 109.05 200.706 109.593 199.793 110.678C198.905 111.739 198.461 113.12 198.461 114.822V122H195.02V106.682H198.128ZM216.952 99.948H220.43V106.719H224.611V109.457H220.43V122H216.952V109.457H214.14V106.719H216.952V99.948Z" fill="white"/>
<path d="M117.269 23.986H125.909V25.66H122.417V37H120.671V25.66H117.269V23.986ZM139.013 23.986V37H137.249V31.294H130.445V37H128.699V23.986H130.445V29.62H137.249V23.986H139.013ZM142.762 23.986H151.222V25.66H144.508V29.62H150.502V31.294H144.508V35.308H151.474V37H142.762V23.986Z" fill="black"/>
</svg>
